<?xml version="1.0" encoding="UTF-8"?>
<svg width="14px" height="14px" viewBox="0 0 14 14" version="1.1" xmlns="http://www.w3.org/2000/svg" xmlns:xlink="http://www.w3.org/1999/xlink">
    <title>box</title>
    <defs>
        <path d="M7.77879235,0.182821504 L12.4454589,2.5161548 C13.0401594,2.81166856 13.4163566,3.41832882 13.416709,4.08271434 L13.416709,9.64219054 C13.4163566,10.3062665 13.0401594,10.9129268 12.4467503,11.2077969 L7.78025069,13.5410466 C7.28730374,13.7877175 6.70694763,13.7877175 6.21416775,13.5411302 L1.54588981,11.2069881 C0.951758166,10.9076234 0.578759892,10.2972626 0.583333333,9.63604767 L0.583333333,4.0824048 C0.583728152,3.41832882 0.959925299,2.81166856 1.55333442,2.51679847 L6.22129235,0.182821504 C6.7118459,-0.0609405014 7.28823881,-0.0609405014 7.77879235,0.182821504 Z M1.74933333,4.303 L1.75001402,9.64010723 C1.74848492,9.8618654 1.87281768,10.065319 2.06925028,10.1642985 L6.41633333,12.338 L6.41633333,6.636 L1.74933333,4.303 Z M12.2493333,4.303 L7.58333333,6.636 L7.58333333,12.334 L11.9262924,10.1636548 C12.1245259,10.0651502 12.249925,9.86293012 12.2500424,9.641881 L12.2493333,4.303 Z M6.74175028,1.22696353 L2.47333333,3.36 L7.00004235,5.62386118 L11.5253333,3.36 L7.25909015,1.22734139 C7.09568845,1.14635326 6.9037998,1.14644115 6.74175028,1.22696353 Z" id="path-1"></path>
    </defs>
    <g id="Page-1" stroke="none" stroke-width="1" fill="none" fill-rule="evenodd">
        <g id="Artboard-Copy-7" transform="translate(-485.000000, -192.000000)">
            <g id="Group-4" transform="translate(150.000000, 134.000000)">
                <g id="box" transform="translate(335.000000, 58.000000)">
                    <mask id="mask-2" fill="white">
                        <use xlink:href="#path-1"></use>
                    </mask>
                    <use id="Combined-Shape" fill="#000000" fill-rule="nonzero" xlink:href="#path-1"></use>
                    <g id="Group" mask="url(#mask-2)" fill="#000000">
                        <g id="COLOR/-black">
                            <rect id="Rectangle" x="0" y="0" width="14" height="14"></rect>
                        </g>
                    </g>
                </g>
            </g>
        </g>
    </g>
</svg>