<?xml version="1.0" encoding="UTF-8"?>
<svg width="14px" height="16px" viewBox="0 0 14 16" version="1.1" xmlns="http://www.w3.org/2000/svg" xmlns:xlink="http://www.w3.org/1999/xlink">
    <title>user</title>
    <defs>
        <path d="M12,10.5 C14.0710678,10.5 15.75,12.1789322 15.75,14.25 L15.75,14.25 L15.75,15.75 C15.75,16.1642136 15.4142136,16.5 15,16.5 C14.5857864,16.5 14.25,16.1642136 14.25,15.75 L14.25,15.75 L14.25,14.25 C14.25,13.0073593 13.2426407,12 12,12 L12,12 L6,12 C4.75735931,12 3.75,13.0073593 3.75,14.25 L3.75,14.25 L3.75,15.75 C3.75,16.1642136 3.41421356,16.5 3,16.5 C2.58578644,16.5 2.25,16.1642136 2.25,15.75 L2.25,15.75 L2.25,14.25 C2.25,12.1789322 3.92893219,10.5 6,10.5 L6,10.5 Z M9,1.5 C11.0710678,1.5 12.75,3.17893219 12.75,5.25 C12.75,7.32106781 11.0710678,9 9,9 C6.92893219,9 5.25,7.32106781 5.25,5.25 C5.25,3.17893219 6.92893219,1.5 9,1.5 Z M9,3 C7.75735931,3 6.75,4.00735931 6.75,5.25 C6.75,6.49264069 7.75735931,7.5 9,7.5 C10.2426407,7.5 11.25,6.49264069 11.25,5.25 C11.25,4.00735931 10.2426407,3 9,3 Z" id="path-1"></path>
    </defs>
    <g id="Page-1" stroke="none" stroke-width="1" fill="none" fill-rule="evenodd">
        <g id="Artboard-Copy-7" transform="translate(-362.000000, -191.000000)">
            <g id="Group-4" transform="translate(80.000000, 186.000000)">
                <g id="user" transform="translate(280.000000, 4.000000)">
                    <mask id="mask-2" fill="white">
                        <use xlink:href="#path-1"></use>
                    </mask>
                    <use id="Combined-Shape" fill="#000000" fill-rule="nonzero" xlink:href="#path-1"></use>
                    <g id="Group" mask="url(#mask-2)" fill="#000000">
                        <g id="COLOR/-black">
                            <rect id="Rectangle" x="0" y="0" width="18" height="18"></rect>
                        </g>
                    </g>
                </g>
            </g>
        </g>
    </g>
</svg>